<?xml version="1.0" encoding="UTF-8"?>
<svg id="Layer_2" data-name="Layer 2" xmlns="http://www.w3.org/2000/svg" viewBox="0 0 359.92 165.79">
  <defs>
    <style>
      .cls-1 {
        fill: #6486c2;
      }
    </style>
  </defs>
  <g id="Layer_1-2" data-name="Layer 1">
    <g>
      <g>
        <path class="cls-1" d="M35.62,0V37.44h-8.72L10.38,17.49v19.95H0V0H8.72L25.24,19.95V0h10.38Z"/>
        <path d="M77.04,34.01h22.52v3.42h-26.47V0h25.67V3.42h-21.71v30.59Zm-.43-17.27h19.79v3.37h-19.79v-3.37Z"/>
        <path d="M149.68,37.76c-4.78,0-8.54-1.37-11.28-4.12-2.75-2.75-4.12-6.81-4.12-12.19V0h3.96V21.29c0,4.42,1,7.68,2.99,9.79,2,2.1,4.81,3.16,8.45,3.16s6.51-1.05,8.5-3.16c2-2.1,3-5.37,3-9.79V0h3.85V21.45c0,5.38-1.36,9.45-4.09,12.19-2.73,2.75-6.48,4.12-11.26,4.12Z"/>
        <path d="M205.29,37.44V0h14.01c3.17,0,5.9,.51,8.18,1.52,2.28,1.02,4.04,2.48,5.27,4.39,1.23,1.91,1.84,4.22,1.84,6.93s-.62,4.91-1.84,6.82c-1.23,1.91-2.99,3.37-5.27,4.39-2.28,1.02-5.01,1.52-8.18,1.52h-11.82l1.76-1.82v13.69h-3.96Zm3.96-13.37l-1.76-1.87h11.71c3.74,0,6.59-.82,8.53-2.46,1.94-1.64,2.92-3.94,2.92-6.9s-.97-5.31-2.92-6.95c-1.94-1.64-4.79-2.46-8.53-2.46h-11.71l1.76-1.87V24.07Zm21.61,13.37l-9.63-13.58h4.28l9.68,13.58h-4.33Z"/>
        <path d="M263.92,37.44L281.04,0h3.9l17.11,37.44h-4.17l-15.72-35.14h1.6l-15.72,35.14h-4.12Zm6.74-10l1.18-3.21h21.77l1.18,3.21h-24.12Z"/>
        <path d="M335,37.44V0h3.96V34.01h20.96v3.42h-24.92Z"/>
        <path class="cls-1" d="M12.54,72.57H0v-8.4H35.62v8.4h-12.49v29.04H12.54v-29.04Z"/>
        <path d="M77.04,98.19h22.52v3.42h-26.47v-37.44h25.67v3.42h-21.71v30.59Zm-.43-17.27h19.79v3.37h-19.79v-3.37Z"/>
        <path d="M152.57,101.93c-2.82,0-5.42-.47-7.81-1.42-2.39-.94-4.46-2.27-6.2-3.98-1.75-1.71-3.11-3.72-4.09-6.04-.98-2.32-1.47-4.85-1.47-7.59s.49-5.28,1.47-7.59c.98-2.32,2.35-4.33,4.12-6.04,1.76-1.71,3.84-3.04,6.23-3.98,2.39-.94,4.99-1.42,7.81-1.42s5.26,.45,7.65,1.36c2.39,.91,4.4,2.27,6.04,4.09l-2.51,2.51c-1.53-1.57-3.23-2.7-5.08-3.4-1.85-.7-3.85-1.04-5.99-1.04-2.25,0-4.33,.38-6.26,1.15-1.93,.77-3.6,1.85-5.03,3.26-1.43,1.41-2.54,3.05-3.34,4.92-.8,1.87-1.2,3.93-1.2,6.18s.4,4.31,1.2,6.18c.8,1.87,1.92,3.51,3.34,4.92,1.43,1.41,3.1,2.5,5.03,3.26s4.01,1.15,6.26,1.15,4.14-.36,5.99-1.07c1.85-.71,3.55-1.85,5.08-3.42l2.51,2.51c-1.64,1.82-3.65,3.19-6.04,4.12-2.39,.93-4.96,1.39-7.7,1.39Z"/>
        <path d="M208.55,101.61h-3.96v-37.44h3.96v37.44Zm23.8-17.27h-24.23v-3.48h24.23v3.48Zm-.37-20.16h3.9v37.44h-3.9v-37.44Z"/>
        <path class="cls-1" d="M12.54,136.75H0v-8.4H35.62v8.4h-12.49v29.04H12.54v-29.04Z"/>
        <path d="M77.04,162.36h22.52v3.42h-26.47v-37.44h25.67v3.42h-21.71v30.59Zm-.43-17.27h19.79v3.37h-19.79v-3.37Z"/>
        <path d="M130.59,165.79l17.11-37.44h3.9l17.11,37.44h-4.17l-15.72-35.14h1.6l-15.72,35.14h-4.12Zm6.74-10l1.18-3.21h21.77l1.18,3.21h-24.12Z"/>
        <path d="M200.79,165.79v-37.44h3.26l17.11,29.2h-1.71l16.95-29.2h3.26v37.44h-3.8v-31.5h.91l-15.62,26.74h-1.87l-15.72-26.74h1.02v31.5h-3.8Z"/>
      </g>
      <g>
        <path class="cls-1" d="M295.83,142.79c3.04-6.3,5.67-12.49,3.09-19.47-1.9-5.13-6.04-8.13-10.72-10.43-5.95-2.92-11.52-6.38-16.32-10.99-5.54-5.34-9.72-11.48-11.3-19.16-.8-3.88-.74-7.74,.34-11.57,.67-2.39,2.72-3.08,4.75-1.64,3.79,2.68,7.61,5.36,12.14,6.63,5.05,1.42,10.21,1.05,15.37,.74,5.84-.36,10.55,1.93,14.12,6.56,.19,.25,.35,.52,.53,.78,.03,.04,.08,.07,.14,.12,2.85-4.19,6.93-6.45,11.81-7.33,1.32-.24,2.71-.08,4.07-.03,6.58,.24,13.23,.77,19.35-2.42,2.88-1.51,5.64-3.28,8.37-5.06,2.19-1.42,4.31-.74,4.98,1.8,2.18,8.33,.1,15.86-4.55,22.8-5.53,8.25-13.37,13.71-22.12,18.12-2.88,1.45-5.75,3.18-8.15,5.32-5.36,4.79-6.01,11.02-4.16,17.57,.88,3.11,2.34,6.05,3.6,9.23,1.74-.73,3.13-1.31,4.52-1.89,9.05-3.79,18.11-4.17,27.04,.21,2.03,1,3.75,2.67,5.52,4.15,.33,.27,.22,1.08,.31,1.63-.48-.19-1.1-.26-1.43-.6-4.36-4.5-9.88-6.26-15.91-6.79-6.34-.55-12.13,1.44-17.87,3.85-9.68,4.07-19.27,3.71-28.7-.96-4.93-2.44-10.12-3.93-15.65-3.83-7.36,.13-13.91,2.58-19.64,7.2-.51,.41-1.09,1.19-1.64,.27-.18-.31,.27-1.27,.69-1.62,3.73-3.13,7.99-5.26,12.69-6.48,8.58-2.23,16.69-.77,24.73,3.29Z"/>
        <path class="cls-1" d="M278.72,150.16c6.29,.05,11.58,1.48,16.58,4.02,5.03,2.56,10.34,3.86,15.98,3.63,4.63-.19,9.02-1.4,13.22-3.34,5.35-2.47,10.97-3.76,16.86-3.27,6.1,.51,11.79,2.19,16.34,6.61,.26,.26,.63,.49,.74,.81,.14,.43,.08,.93,.1,1.4-.42-.12-.95-.13-1.23-.39-9.18-8.54-19.62-8.62-30.59-4.45-4.78,1.82-9.46,3.76-14.67,4.01-5.7,.28-11.13-.66-16.25-3.15-4.68-2.27-9.48-4.04-14.74-4.28-8.09-.38-15.22,2.11-21.55,7.1-.42,.33-1.13,.31-1.7,.46,.24-.55,.33-1.3,.75-1.63,6.07-4.89,13.01-7.42,20.16-7.52Z"/>
      </g>
    </g>
  </g>
</svg>